<svg width="16" height="16" viewBox="0 0 16 16" fill="none" xmlns="http://www.w3.org/2000/svg">
<g id="more-horizontal">
<path id="Vector" d="M7.99998 8.6667C8.36817 8.6667 8.66665 8.36822 8.66665 8.00003C8.66665 7.63184 8.36817 7.33337 7.99998 7.33337C7.63179 7.33337 7.33331 7.63184 7.33331 8.00003C7.33331 8.36822 7.63179 8.6667 7.99998 8.6667Z" stroke="#C8CAD8" stroke-width="2" stroke-linecap="round" stroke-linejoin="round"/>
<path id="Vector_2" d="M12.6667 8.6667C13.0349 8.6667 13.3333 8.36822 13.3333 8.00003C13.3333 7.63184 13.0349 7.33337 12.6667 7.33337C12.2985 7.33337 12 7.63184 12 8.00003C12 8.36822 12.2985 8.6667 12.6667 8.6667Z" stroke="#C8CAD8" stroke-width="2" stroke-linecap="round" stroke-linejoin="round"/>
<path id="Vector_3" d="M3.33335 8.6667C3.70154 8.6667 4.00002 8.36822 4.00002 8.00003C4.00002 7.63184 3.70154 7.33337 3.33335 7.33337C2.96516 7.33337 2.66669 7.63184 2.66669 8.00003C2.66669 8.36822 2.96516 8.6667 3.33335 8.6667Z" stroke="#C8CAD8" stroke-width="2" stroke-linecap="round" stroke-linejoin="round"/>
</g>
</svg>
